<svg xmlns="http://www.w3.org/2000/svg" height="1em" style="flex:none;line-height:1" width="1em" viewBox="0 0 24 24"><title>Kiro</title><rect width="24" height="24" fill="#232F3E" rx="5"/><path fill="#F90" d="M6.35 5.25h2.8v5.34l5.03-5.34h3.42l-4.92 5.08 5.17 8.42h-3.28l-3.82-6.29-1.6 1.66v4.63h-2.8V5.25z"/><path fill="#FFF" d="M18.02 18.65c-2.08 1.18-4.35 1.76-6.8 1.76-2.05 0-3.92-.39-5.61-1.18-.2-.09-.12-.39.1-.33 1.86.5 3.72.74 5.58.74 2.2 0 4.35-.43 6.45-1.29.25-.1.51.16.28.3z" opacity=".9"/></svg>